<svg width="117" height="94" viewBox="0 0 117 94" fill="none" xmlns="http://www.w3.org/2000/svg">
<g clip-path="url(#clip0_106_58787)">
<mask id="mask0_106_58787" style="mask-type:luminance" maskUnits="userSpaceOnUse" x="0" y="1" width="117" height="93">
<path d="M116.497 1.44922L0.90332 1.44922L0.90332 93.9948L116.497 93.9948L116.497 1.44922Z" fill="white"/>
</mask>
<g mask="url(#mask0_106_58787)">
<path d="M116.456 46.3103C117.011 55.519 113.407 87.789 68.6773 93.4502C23.9395 99.1155 10.2091 58.7664 11.6633 37.1016C49.8881 60.5923 116.456 46.3103 116.456 46.3103Z" fill="#B7272D"/>
<path d="M0.90332 4.17494L11.6051 41.5975C11.6051 41.5975 19.6842 83.4682 67.2974 82.9012C114.915 82.3385 117.753 52.1778 116.075 42.5855C112.325 22.3381 103.09 13.4879 89.0282 5.95498C74.9705 -1.5779 52.7797 2.02804 46.4241 4.7127C16.0797 4.40005 0.90332 4.17494 0.90332 4.17494Z" fill="#ED1C24"/>
<path d="M68.3333 7.47141C62.2594 4.10726 45.4507 2.03123 40.077 11.1441C34.7033 20.2569 35.7433 38.1449 43.7768 46.7158C51.8104 55.2866 66.9785 56.3122 75.6377 51.539C84.2969 46.7658 74.4072 10.8356 68.3333 7.47141Z" fill="white"/>
<path d="M84.2758 18.0273C81.678 18.0898 77.9658 15.1509 72.4926 12.1202C67.0195 9.08956 51.8805 7.22198 47.0413 15.4302C42.2021 23.6384 43.1384 39.7505 50.3724 47.4751C57.6104 55.1956 71.2704 56.1169 79.072 51.819C86.8735 47.521 91.0954 46.6081 94.9568 50.0806C98.8182 53.5531 107.026 57.6885 109.483 46.9957C111.94 36.303 108.26 24.0386 102.999 18.6526C97.7369 13.2666 93.9708 13.9461 90.88 15.822C87.7892 17.698 87.1387 17.9439 84.2758 18.0273Z" fill="white"/>
<path d="M66.6055 38.1773C69.6632 36.6349 70.2515 31.6199 67.9272 26.9718C65.5987 22.3237 61.236 19.8058 58.1783 21.3482C55.1207 22.8906 54.5324 27.9056 56.8567 32.5537C59.1851 37.2018 63.5479 39.7197 66.6055 38.1773Z" fill="#1A1A1A"/>
<path d="M101.864 32.1651C102.85 28.68 101.793 25.3284 99.502 24.6739C97.2108 24.0194 94.5551 26.3164 93.569 29.8014C92.5829 33.2865 93.6394 36.6381 95.9306 37.2926C98.2218 37.9471 100.873 35.646 101.864 32.1651Z" fill="#1A1A1A"/>
</g>
<path d="M71.4613 8.11889C57.5817 0.0565854 41.1375 2.57449 34.7281 13.7425C34.1812 14.6971 33.7296 15.6851 33.3608 16.694C40.9304 8.59829 55.2118 7.44356 67.4963 14.5762C80.1909 21.9507 86.3311 35.6158 82.3868 46.4419C83.3728 45.3873 84.2471 44.2242 84.9845 42.936C91.394 31.7722 85.3408 16.1812 71.4613 8.11889Z" fill="#262D59"/>
<path opacity="0.5" d="M82.4286 46.8017C88.8367 35.6344 82.7804 20.0453 68.9014 11.9826C55.0224 3.91987 38.5764 6.43665 32.1683 17.604C25.7602 28.7713 31.8166 44.3604 45.6956 52.4231C59.5746 60.4858 76.0205 57.969 82.4286 46.8017Z" fill="#D1D3D4"/>
<path d="M36.5466 20.7698C36.443 20.7698 36.3353 20.7448 36.2359 20.6865C35.9376 20.5156 35.8381 20.132 36.008 19.8319C38.6638 15.2046 43.387 12.1531 49.3075 11.2485C55.1742 10.348 61.5298 11.6695 67.1935 14.9587C67.4918 15.1296 67.5913 15.5131 67.4214 15.8132C67.2515 16.1134 66.8704 16.2134 66.5721 16.0425C61.1487 12.891 55.0831 11.6278 49.494 12.4866C43.9546 13.3329 39.5463 16.1676 37.0811 20.4572C36.9692 20.6573 36.7579 20.7698 36.5466 20.7698Z" fill="white"/>
<path d="M48.2555 48.5652C34.3759 40.5029 28.3228 24.9119 34.7281 13.748C35.652 12.1347 36.7914 10.709 38.0965 9.46259C36.6588 10.0462 35.304 10.7716 34.0321 11.6011L34.9228 8.75391L29.9676 15.0237C28.9235 16.1534 27.9831 17.3957 27.1959 18.7672C20.1649 31.0107 26.8064 48.1025 42.0242 56.9443C57.242 65.7862 75.273 63.0223 82.2998 50.7788C83.6795 48.3734 84.5247 45.7805 84.8893 43.1042C78.4135 54.1304 62.0646 56.5858 48.2555 48.5652Z" fill="#262D59"/>
<path d="M72.5798 6.17356C57.3619 -2.6683 39.3309 0.0913944 32.3042 12.3391C25.2774 24.5826 31.9188 41.6744 47.1366 50.5163C62.3544 59.3581 80.3855 56.5942 87.4122 44.3507C94.4349 32.103 87.7976 15.0112 72.5798 6.17356ZM84.9885 42.9417C78.579 54.1097 62.1349 56.6276 48.2553 48.5653C34.3757 40.503 28.3226 24.912 34.7279 13.7481C41.1374 2.57595 57.5815 0.0580446 71.4611 8.12035C85.3407 16.1827 91.3938 31.7737 84.9885 42.9417Z" fill="#001952"/>
<path d="M38.8877 52.7635C38.8877 52.7635 41.6056 49.3493 46.3868 51.8881C51.168 54.4268 48.1352 58.7748 48.1352 58.7748L31.9355 91.3659C31.9355 91.3659 21.2296 94.7134 20.8442 85.3421C23.6243 79.4141 38.8877 52.7635 38.8877 52.7635Z" fill="#3A477E"/>
<path d="M25.8947 62.1186C29.0352 57.337 35.0096 53.4851 40.4579 57.1411C44.8537 60.0884 37.5494 70.3143 31.2311 73.1782C29.0269 74.1745 26.4457 73.0365 25.6171 70.7562C24.7387 68.33 24.0841 64.8783 25.8947 62.1186Z" fill="#B7272D"/>
<path d="M25.8949 62.1186C29.0354 57.337 35.0098 53.4851 40.4581 57.1411C45.9063 60.7971 22.7544 66.9001 25.8949 62.1186Z" fill="#F14C52"/>
</g>
<defs>
<clipPath id="clip0_106_58787">
<rect width="115.598" height="93" fill="white" transform="translate(0.90332 0.996094)"/>
</clipPath>
</defs>
</svg>
