<svg width="800" height="800" viewBox="0 0 512 512" xmlns="http://www.w3.org/2000/svg"><path d="M408.159 298.666c-25.544 41.703-63.37 86.681-113.48 134.935l-14.95 14.154c-2.55 2.374-5.128 4.756-7.736 7.146L256 469.333a1382.607 1382.607 0 0 1-23.728-21.578l-14.95-14.154c-50.11-48.254-87.936-93.232-113.48-134.935h51.047c22.636 32.062 53.327 66.944 92.26 104.42l8.851 8.413 1.484-1.383c42.448-40.152 75.583-77.392 99.627-111.45h51.048ZM192 122.964l64 127.98 32-63.98 23.851 47.703h157.483v42.666H290.517l-34.518 69.036-64-128.001-29.482 58.965H42.667v-42.666h93.461L192 122.964ZM332.8 64C396.424 64 448 115.578 448 179.2c0 11.049-1.231 22.426-3.695 34.132h-43.844c2.83-10.452 4.424-20.427 4.79-29.91l.083-4.222c0-40.059-32.475-72.533-72.534-72.533-16.481 0-32.008 5.47-44.612 15.355l-3.691 3.097-28.463 25.515-28.478-25.499c-13.228-11.843-30.22-18.468-48.356-18.468-40.059 0-72.533 32.473-72.533 72.533 0 10.732 1.618 22.117 4.873 34.133H67.695C65.232 201.626 64 190.249 64 179.2 64 115.577 115.577 64 179.2 64c29.513 0 56.434 11.098 76.817 29.348C276.384 75.091 303.297 64 332.8 64Z" fill-rule="evenodd"/></svg>